<?xml version="1.0" encoding="UTF-8" standalone="no"?>
<!-- Created with Inkscape (http://www.inkscape.org/) -->

<svg
   xmlns:dc="http://purl.org/dc/elements/1.1/"
   xmlns:cc="http://creativecommons.org/ns#"
   xmlns:rdf="http://www.w3.org/1999/02/22-rdf-syntax-ns#"
   xmlns:svg="http://www.w3.org/2000/svg"
   xmlns="http://www.w3.org/2000/svg"
   xmlns:sodipodi="http://sodipodi.sourceforge.net/DTD/sodipodi-0.dtd"
   xmlns:inkscape="http://www.inkscape.org/namespaces/inkscape"
   version="1.1"
   id="svg2"
   width="341.33334"
   height="341.33334"
   viewBox="0 0 341.33334 341.33334"
   sodipodi:docname="raspap-webgui.svg"
   inkscape:version="0.92.1 r15371">
  <metadata
     id="metadata8">
    <rdf:RDF>
      <cc:Work
         rdf:about="">
        <dc:format>image/svg+xml</dc:format>
        <dc:type
           rdf:resource="http://purl.org/dc/dcmitype/StillImage" />
        <dc:title></dc:title>
      </cc:Work>
    </rdf:RDF>
  </metadata>
  <defs
     id="defs6" />
  <sodipodi:namedview
     pagecolor="#ffffff"
     bordercolor="#666666"
     borderopacity="1"
     objecttolerance="10"
     gridtolerance="10"
     guidetolerance="10"
     inkscape:pageopacity="0"
     inkscape:pageshadow="2"
     inkscape:window-width="1440"
     inkscape:window-height="880"
     id="namedview4"
     showgrid="false"
     inkscape:zoom="5.5312498"
     inkscape:cx="105.00081"
     inkscape:cy="224.1878"
     inkscape:window-x="1600"
     inkscape:window-y="0"
     inkscape:window-maximized="1"
     inkscape:current-layer="g3682" />
  <g
     id="g3682"
     transform="translate(-4.3389871,-7.2316418)">
    <path
       style="fill:#d7234c;stroke:none;stroke-width:1.33333337;stroke-opacity:1"
       d="m 106.33365,324.77809 c -13.313483,-3.00149 -23.455053,-7.20417 -33.849173,-14.02717 -19.49184,-12.79496 -33.21807,-30.63679 -41.01499,-53.3127 -4.03801,-11.74377 -4.35686,-13.92957 -4.37629,-30 -0.0237,-19.63903 1.87167,-28.60605 9.35802,-44.27179 12.83458,-26.85729 37.04094,-46.2735 67.174493,-53.88144 9.47365,-2.39185 13.87528,-2.74591 27.33334,-2.19861 27.45736,1.1166 47.37992,9.95809 66.70793,29.60452 12.45765,12.66289 18.09099,21.62119 23.72761,37.73237 3.50318,10.01314 4.1693,14.07815 4.66375,28.46067 0.48057,13.97864 0.1084,18.63173 -2.23024,27.8796 -8.73413,34.53882 -34.12547,61.10474 -68.82779,72.01172 -12.17889,3.82784 -36.18878,4.81595 -48.66666,2.00283 z m 41.58562,-21.53831 c 27.6832,-8.22102 48.94534,-30.27268 55.96891,-58.04717 6.84276,-27.0594 -2.17911,-57.03442 -22.95563,-76.26982 -25.10826,-23.24581 -57.98927,-28.23478 -89.006503,-13.50476 -18.57267,8.82012 -36.28798,29.97874 -41.85587,49.99134 -2.91711,10.48497 -3.18226,30.98384 -0.52962,40.94709 6.33103,23.77926 26.91571,46.53244 49.866132,55.1193 14.765341,5.52442 33.549881,6.20746 48.512581,1.76402 z m -30.91362,-24.52905 c -31.076573,-6.45639 -49.021013,-35.1504 -41.444023,-66.27099 6.17836,-25.37608 34.068713,-42.75091 60.684903,-37.80481 11.47981,2.13329 19.0198,6.24766 28.2038,15.39005 10.91785,10.86839 14.41265,19.56909 14.49218,36.07991 0.094,19.52612 -7.2859,34.17638 -22.41989,44.50667 -10.47108,7.14742 -27.39874,10.61682 -39.51697,8.09917 z m 186.66133,-80.43119 c 0,-0.27061 -0.91549,-5.82061 -2.03442,-12.33333 C 294.52374,144.56958 271.20228,106.6737 237.61833,81.927217 211.59221,62.749762 182.20554,52.427163 146.81527,50.031004 l -13.51838,-0.915285 -0.80028,-4.838751 c -0.44016,-2.661313 -0.80689,-7.088752 -0.81496,-9.838752 l -0.0147,-5 h 13.76504 c 64.91963,0 127.82282,39.079887 158.76722,98.637364 10.32414,19.87048 16.17833,38.74084 20.17414,65.02931 l 0.86137,5.66666 h -10.78387 c -5.93113,0 -10.78387,-0.2214 -10.78387,-0.49201 z m -51.34468,-3.52633 c -0.45945,-0.74343 -2.00967,-5.58926 -3.44491,-10.7685 -5.42178,-19.56514 -13.19474,-33.09068 -27.79528,-48.36586 -19.5447,-20.44781 -44.12928,-31.93314 -72.74846,-33.98638 l -12,-0.86092 c -0.29477,-4.58675 -0.55999,-15.78232 -0.65109,-19.056517 -0.0937,-3.368048 -0.0137,1.225384 -0.35775,-0.610149 0.83956,-1.680624 16.6632,-1.115618 28.99817,1.035421 26.24543,4.576819 49.98665,16.885386 69.36984,35.964585 13.85744,13.64011 22.8916,26.60213 29.56567,42.42021 4.06555,9.63565 9.70659,29.29203 9.73248,33.91312 -11.01625,0.26181 -11.08494,0.0153 -20.66867,0.31499 z"
       id="path3684"
       inkscape:connector-curvature="0"
       sodipodi:nodetypes="ccccsssssscscssssssssssssccsssssccccssccsscssscscssccc" />
  </g>
</svg>
